<svg width="873" height="873" viewBox="0 0 873 873" fill="none" xmlns="http://www.w3.org/2000/svg">
<g clip-path="url(#clip0_64_92)">
<path d="M436.4 218.2C436.4 97.7 534.1 0 654.6 0C775.1 0 872.8 97.7 872.8 218.2C872.8 338.7 775.1 436.4 654.6 436.4C534.1 436.4 436.4 338.7 436.4 218.2ZM436.4 218.2C436.4 97.7 338.7 0 218.2 0C97.7 0 0 97.7 0 218.2C0 338.7 97.7 436.4 218.2 436.4C338.7 436.4 436.4 338.7 436.4 218.2ZM218.2 436.4C97.7 436.4 0 534.1 0 654.6C0 775.1 97.7 872.8 218.2 872.8C338.7 872.8 436.4 775.1 436.4 654.6C436.4 534.1 338.7 436.4 218.2 436.4ZM654.6 436.4C534.1 436.4 436.4 534.1 436.4 654.6C436.4 775.1 534.1 872.8 654.6 872.8C775.1 872.8 872.8 775.1 872.8 654.6C872.8 534.1 775.1 436.4 654.6 436.4Z" fill="black"/>
</g>
<defs>
<clipPath id="clip0_64_92">
<rect width="872.8" height="872.8" fill="white"/>
</clipPath>
</defs>
</svg>
