<svg width="933" height="933" viewBox="0 0 933 933" fill="none" xmlns="http://www.w3.org/2000/svg">
<path d="M57.85 847.05C57.45 847.55 56.95 847.95 56.55 848.45C56.95 847.95 57.35 847.55 57.85 847.05ZM325.35 606.65L325.45 606.75C326.75 605.35 328.15 603.95 329.55 602.55C328.15 603.95 326.75 605.35 325.35 606.65ZM606.85 325.45L606.75 325.35C605.45 326.75 604.05 328.15 602.65 329.55C603.95 328.15 605.45 326.85 606.85 325.45ZM329.55 329.55C404.95 404.95 404.95 527.15 329.55 602.55C404.95 527.15 527.15 527.15 602.55 602.55C527.15 527.15 527.15 404.95 602.55 329.55C527.25 404.95 404.95 404.95 329.55 329.55ZM325.45 325.35L325.35 325.45C326.75 326.75 328.15 328.15 329.55 329.55C328.15 328.15 326.85 326.75 325.45 325.35ZM606.65 606.85L606.75 606.75C605.35 605.45 603.95 604.05 602.55 602.65C603.95 603.95 605.35 605.45 606.65 606.85ZM606.65 325.35C677.95 249.65 676.55 130.55 602.55 56.55C527.15 -18.85 404.95 -18.85 329.55 56.55C255.55 130.55 254.15 249.65 325.45 325.35L466.05 184.75L606.65 325.35ZM325.35 325.45C249.65 254.15 130.55 255.55 56.55 329.55C-18.85 404.95 -18.85 527.15 56.55 602.55C130.55 676.55 249.65 677.95 325.35 606.65L184.75 466.05L325.35 325.45ZM325.45 606.85C254.15 682.55 255.55 801.65 329.55 875.65C404.95 951.05 527.15 951.05 602.55 875.65C676.55 801.65 677.95 682.55 606.65 606.85L466.05 747.45L325.45 606.85ZM875.55 329.55C801.55 255.55 682.45 254.15 606.75 325.45L747.45 466.05L606.85 606.65C682.55 677.95 801.65 676.55 875.65 602.55C950.95 527.25 950.95 404.95 875.55 329.55Z" fill="black"/>
</svg>
