<svg width="752" height="752" viewBox="0 0 752 752" fill="none" xmlns="http://www.w3.org/2000/svg">
<g clip-path="url(#clip0_64_94)">
<path d="M569.1 182.1H375.7C378.7 81 461.6 0 563.4 0C667.1 0 751.2 84.1 751.2 187.8C751.2 289.6 670.2 372.5 569.1 375.5V182.1ZM187.8 0C84.1 0 0 84.1 0 187.8C0 289.6 81 372.5 182.1 375.5V182.1H375.5C372.5 81 289.6 0 187.8 0ZM569.1 375.7V569.1H375.7C378.7 670.2 461.6 751.2 563.4 751.2C667.1 751.2 751.2 667.1 751.2 563.4C751.2 461.6 670.2 378.7 569.1 375.7ZM182.1 375.7C81 378.7 0 461.6 0 563.4C0 667.1 84.1 751.2 187.8 751.2C289.6 751.2 372.5 670.2 375.5 569.1H182.1V375.7Z" fill="black"/>
</g>
<defs>
<clipPath id="clip0_64_94">
<rect width="751.2" height="751.2" fill="white"/>
</clipPath>
</defs>
</svg>
