<svg width="938" height="218" viewBox="0 0 938 218" fill="none" xmlns="http://www.w3.org/2000/svg">
<g clip-path="url(#clip0_5026_4252)">
<mask id="mask0_5026_4252" style="mask-type:alpha" maskUnits="userSpaceOnUse" x="0" y="0" width="939" height="218">
<rect width="938.464" height="217.82" fill="url(#paint0_radial_5026_4252)"/>
</mask>
<g mask="url(#mask0_5026_4252)">
<g opacity="0.4">
<rect x="-34.001" y="127.995" width="38.7102" height="38.7102" stroke="#94ACF2" stroke-width="0.6"/>
<rect x="-34.001" y="-26.8452" width="38.7102" height="38.7102" stroke="#94ACF2" stroke-width="0.6"/>
<rect x="-34.001" y="166.705" width="38.7102" height="38.7102" stroke="#94ACF2" stroke-width="0.6"/>
<rect x="-34.001" y="11.8657" width="38.7102" height="38.7102" stroke="#94ACF2" stroke-width="0.6"/>
<rect x="-34.001" y="205.416" width="38.7102" height="38.7102" stroke="#94ACF2" stroke-width="0.6"/>
<rect x="-34.001" y="50.5747" width="38.7102" height="38.7102" stroke="#94ACF2" stroke-width="0.6"/>
<rect x="-34.001" y="89.2842" width="38.7102" height="38.7102" stroke="#94ACF2" stroke-width="0.6"/>
<rect x="4.70959" y="127.995" width="38.7102" height="38.7102" stroke="#94ACF2" stroke-width="0.6"/>
<rect x="4.70959" y="-26.8452" width="38.7102" height="38.7102" stroke="#94ACF2" stroke-width="0.6"/>
<rect x="4.70959" y="166.705" width="38.7102" height="38.7102" stroke="#94ACF2" stroke-width="0.6"/>
<rect x="4.70959" y="11.8657" width="38.7102" height="38.7102" stroke="#94ACF2" stroke-width="0.6"/>
<rect x="4.70959" y="205.416" width="38.7102" height="38.7102" stroke="#94ACF2" stroke-width="0.6"/>
<rect x="4.70959" y="50.5747" width="38.7102" height="38.7102" stroke="#94ACF2" stroke-width="0.6"/>
<rect x="4.70959" y="89.2842" width="38.7102" height="38.7102" stroke="#94ACF2" stroke-width="0.6"/>
<rect x="43.4198" y="127.995" width="38.7102" height="38.7102" stroke="#94ACF2" stroke-width="0.6"/>
<rect x="43.4198" y="-26.8452" width="38.7102" height="38.7102" stroke="#94ACF2" stroke-width="0.6"/>
<rect x="43.4198" y="166.705" width="38.7102" height="38.7102" stroke="#94ACF2" stroke-width="0.6"/>
<rect x="43.4198" y="11.8657" width="38.7102" height="38.7102" stroke="#94ACF2" stroke-width="0.6"/>
<rect x="43.4198" y="205.416" width="38.7102" height="38.7102" stroke="#94ACF2" stroke-width="0.6"/>
<rect x="43.4198" y="50.5747" width="38.7102" height="38.7102" stroke="#94ACF2" stroke-width="0.6"/>
<rect x="43.4198" y="89.2842" width="38.7102" height="38.7102" stroke="#94ACF2" stroke-width="0.6"/>
<rect x="82.13" y="127.995" width="38.7102" height="38.7102" stroke="#94ACF2" stroke-width="0.6"/>
<rect x="82.13" y="-26.8452" width="38.7102" height="38.7102" stroke="#94ACF2" stroke-width="0.6"/>
<rect x="82.13" y="166.705" width="38.7102" height="38.7102" stroke="#94ACF2" stroke-width="0.6"/>
<rect x="82.13" y="11.8657" width="38.7102" height="38.7102" stroke="#94ACF2" stroke-width="0.6"/>
<rect x="82.13" y="205.416" width="38.7102" height="38.7102" stroke="#94ACF2" stroke-width="0.6"/>
<rect x="82.13" y="50.5747" width="38.7102" height="38.7102" stroke="#94ACF2" stroke-width="0.6"/>
<rect x="82.13" y="89.2842" width="38.7102" height="38.7102" stroke="#94ACF2" stroke-width="0.6"/>
<rect x="120.84" y="127.995" width="38.7102" height="38.7102" stroke="#94ACF2" stroke-width="0.6"/>
<rect x="120.84" y="-26.8452" width="38.7102" height="38.7102" stroke="#94ACF2" stroke-width="0.6"/>
<rect x="120.84" y="166.705" width="38.7102" height="38.7102" stroke="#94ACF2" stroke-width="0.6"/>
<rect x="120.84" y="11.8657" width="38.7102" height="38.7102" stroke="#94ACF2" stroke-width="0.6"/>
<rect x="120.84" y="205.416" width="38.7102" height="38.7102" stroke="#94ACF2" stroke-width="0.6"/>
<rect x="120.84" y="50.5747" width="38.7102" height="38.7102" stroke="#94ACF2" stroke-width="0.6"/>
<rect x="120.84" y="89.2842" width="38.7102" height="38.7102" stroke="#94ACF2" stroke-width="0.6"/>
<rect x="159.55" y="127.995" width="38.7102" height="38.7102" stroke="#94ACF2" stroke-width="0.6"/>
<rect x="159.55" y="-26.8452" width="38.7102" height="38.7102" stroke="#94ACF2" stroke-width="0.6"/>
<rect x="159.55" y="166.705" width="38.7102" height="38.7102" stroke="#94ACF2" stroke-width="0.6"/>
<rect x="159.55" y="11.8657" width="38.7102" height="38.7102" stroke="#94ACF2" stroke-width="0.6"/>
<rect x="159.55" y="205.416" width="38.7102" height="38.7102" stroke="#94ACF2" stroke-width="0.6"/>
<rect x="159.55" y="50.5747" width="38.7102" height="38.7102" stroke="#94ACF2" stroke-width="0.6"/>
<rect x="159.55" y="89.2842" width="38.7102" height="38.7102" stroke="#94ACF2" stroke-width="0.6"/>
<rect x="198.261" y="127.995" width="38.7102" height="38.7102" stroke="#94ACF2" stroke-width="0.6"/>
<rect x="198.261" y="-26.8452" width="38.7102" height="38.7102" stroke="#94ACF2" stroke-width="0.6"/>
<rect x="198.261" y="166.705" width="38.7102" height="38.7102" stroke="#94ACF2" stroke-width="0.6"/>
<rect x="198.261" y="11.8657" width="38.7102" height="38.7102" stroke="#94ACF2" stroke-width="0.6"/>
<rect x="198.261" y="205.416" width="38.7102" height="38.7102" stroke="#94ACF2" stroke-width="0.6"/>
<rect x="198.261" y="50.5747" width="38.7102" height="38.7102" stroke="#94ACF2" stroke-width="0.6"/>
<rect x="198.261" y="89.2842" width="38.7102" height="38.7102" stroke="#94ACF2" stroke-width="0.6"/>
<rect x="236.971" y="127.995" width="38.7102" height="38.7102" stroke="#94ACF2" stroke-width="0.6"/>
<rect x="236.971" y="-26.8452" width="38.7102" height="38.7102" stroke="#94ACF2" stroke-width="0.6"/>
<rect x="236.971" y="166.705" width="38.7102" height="38.7102" stroke="#94ACF2" stroke-width="0.6"/>
<rect x="236.971" y="11.8657" width="38.7102" height="38.7102" stroke="#94ACF2" stroke-width="0.6"/>
<rect x="236.971" y="205.416" width="38.7102" height="38.7102" stroke="#94ACF2" stroke-width="0.6"/>
<rect x="236.971" y="50.5747" width="38.7102" height="38.7102" stroke="#94ACF2" stroke-width="0.6"/>
<rect x="236.971" y="89.2842" width="38.7102" height="38.7102" stroke="#94ACF2" stroke-width="0.6"/>
<rect x="275.681" y="127.995" width="38.7102" height="38.7102" stroke="#94ACF2" stroke-width="0.6"/>
<rect x="275.681" y="-26.8452" width="38.7102" height="38.7102" stroke="#94ACF2" stroke-width="0.6"/>
<rect x="275.681" y="166.705" width="38.7102" height="38.7102" stroke="#94ACF2" stroke-width="0.6"/>
<rect x="275.681" y="11.8657" width="38.7102" height="38.7102" stroke="#94ACF2" stroke-width="0.6"/>
<rect x="275.681" y="205.416" width="38.7102" height="38.7102" stroke="#94ACF2" stroke-width="0.6"/>
<rect x="275.681" y="50.5747" width="38.7102" height="38.7102" stroke="#94ACF2" stroke-width="0.6"/>
<rect x="275.681" y="89.2842" width="38.7102" height="38.7102" stroke="#94ACF2" stroke-width="0.6"/>
<rect x="314.391" y="127.995" width="38.7102" height="38.7102" stroke="#94ACF2" stroke-width="0.6"/>
<rect x="314.391" y="-26.8452" width="38.7102" height="38.7102" stroke="#94ACF2" stroke-width="0.6"/>
<rect x="314.391" y="166.705" width="38.7102" height="38.7102" stroke="#94ACF2" stroke-width="0.6"/>
<rect x="314.391" y="11.8657" width="38.7102" height="38.7102" stroke="#94ACF2" stroke-width="0.6"/>
<rect x="314.391" y="205.416" width="38.7102" height="38.7102" stroke="#94ACF2" stroke-width="0.6"/>
<rect x="314.391" y="50.5747" width="38.7102" height="38.7102" stroke="#94ACF2" stroke-width="0.6"/>
<rect x="314.391" y="89.2842" width="38.7102" height="38.7102" stroke="#94ACF2" stroke-width="0.6"/>
<rect x="353.102" y="127.995" width="38.7102" height="38.7102" stroke="#94ACF2" stroke-width="0.6"/>
<rect x="353.102" y="-26.8452" width="38.7102" height="38.7102" stroke="#94ACF2" stroke-width="0.6"/>
<rect x="353.102" y="166.705" width="38.7102" height="38.7102" stroke="#94ACF2" stroke-width="0.6"/>
<rect x="353.102" y="11.8657" width="38.7102" height="38.7102" stroke="#94ACF2" stroke-width="0.6"/>
<rect x="353.102" y="205.416" width="38.7102" height="38.7102" stroke="#94ACF2" stroke-width="0.6"/>
<rect x="353.102" y="50.5747" width="38.7102" height="38.7102" stroke="#94ACF2" stroke-width="0.6"/>
<rect x="353.102" y="89.2842" width="38.7102" height="38.7102" stroke="#94ACF2" stroke-width="0.6"/>
<rect x="391.812" y="127.995" width="38.7102" height="38.7102" stroke="#94ACF2" stroke-width="0.6"/>
<rect x="391.812" y="-26.8452" width="38.7102" height="38.7102" stroke="#94ACF2" stroke-width="0.6"/>
<rect x="391.812" y="166.705" width="38.7102" height="38.7102" stroke="#94ACF2" stroke-width="0.6"/>
<rect x="391.812" y="11.8657" width="38.7102" height="38.7102" stroke="#94ACF2" stroke-width="0.6"/>
<rect x="391.812" y="205.416" width="38.7102" height="38.7102" stroke="#94ACF2" stroke-width="0.6"/>
<rect x="391.812" y="50.5747" width="38.7102" height="38.7102" stroke="#94ACF2" stroke-width="0.6"/>
<rect x="391.812" y="89.2842" width="38.7102" height="38.7102" stroke="#94ACF2" stroke-width="0.6"/>
<rect x="430.522" y="127.995" width="38.7102" height="38.7102" stroke="#94ACF2" stroke-width="0.6"/>
<rect x="430.522" y="-26.8452" width="38.7102" height="38.7102" stroke="#94ACF2" stroke-width="0.6"/>
<rect x="430.522" y="166.705" width="38.7102" height="38.7102" stroke="#94ACF2" stroke-width="0.6"/>
<rect x="430.522" y="11.8657" width="38.7102" height="38.7102" stroke="#94ACF2" stroke-width="0.6"/>
<rect x="430.522" y="205.416" width="38.7102" height="38.7102" stroke="#94ACF2" stroke-width="0.6"/>
<rect x="430.522" y="50.5747" width="38.7102" height="38.7102" stroke="#94ACF2" stroke-width="0.6"/>
<rect x="430.522" y="89.2842" width="38.7102" height="38.7102" stroke="#94ACF2" stroke-width="0.6"/>
</g>
<g opacity="0.4">
<rect x="469.232" y="127.995" width="38.7102" height="38.7102" stroke="#94ACF2" stroke-width="0.6"/>
<rect x="469.232" y="-26.8452" width="38.7102" height="38.7102" stroke="#94ACF2" stroke-width="0.6"/>
<rect x="469.232" y="166.705" width="38.7102" height="38.7102" stroke="#94ACF2" stroke-width="0.6"/>
<rect x="469.232" y="11.8657" width="38.7102" height="38.7102" stroke="#94ACF2" stroke-width="0.6"/>
<rect x="469.232" y="205.416" width="38.7102" height="38.7102" stroke="#94ACF2" stroke-width="0.6"/>
<rect x="469.232" y="50.5747" width="38.7102" height="38.7102" stroke="#94ACF2" stroke-width="0.6"/>
<rect x="469.232" y="89.2842" width="38.7102" height="38.7102" stroke="#94ACF2" stroke-width="0.6"/>
<rect x="507.942" y="127.995" width="38.7102" height="38.7102" stroke="#94ACF2" stroke-width="0.6"/>
<rect x="507.942" y="-26.8452" width="38.7102" height="38.7102" stroke="#94ACF2" stroke-width="0.6"/>
<rect x="507.942" y="166.705" width="38.7102" height="38.7102" stroke="#94ACF2" stroke-width="0.6"/>
<rect x="507.942" y="11.8657" width="38.7102" height="38.7102" stroke="#94ACF2" stroke-width="0.6"/>
<rect x="507.942" y="205.416" width="38.7102" height="38.7102" stroke="#94ACF2" stroke-width="0.6"/>
<rect x="507.942" y="50.5747" width="38.7102" height="38.7102" stroke="#94ACF2" stroke-width="0.6"/>
<rect x="507.942" y="89.2842" width="38.7102" height="38.7102" stroke="#94ACF2" stroke-width="0.6"/>
<rect x="546.652" y="127.995" width="38.7102" height="38.7102" stroke="#94ACF2" stroke-width="0.6"/>
<rect x="546.652" y="-26.8452" width="38.7102" height="38.7102" stroke="#94ACF2" stroke-width="0.6"/>
<rect x="546.652" y="166.705" width="38.7102" height="38.7102" stroke="#94ACF2" stroke-width="0.6"/>
<rect x="546.652" y="11.8657" width="38.7102" height="38.7102" stroke="#94ACF2" stroke-width="0.6"/>
<rect x="546.652" y="205.416" width="38.7102" height="38.7102" stroke="#94ACF2" stroke-width="0.6"/>
<rect x="546.652" y="50.5747" width="38.7102" height="38.7102" stroke="#94ACF2" stroke-width="0.6"/>
<rect x="546.652" y="89.2842" width="38.7102" height="38.7102" stroke="#94ACF2" stroke-width="0.6"/>
<rect x="585.363" y="127.995" width="38.7102" height="38.7102" stroke="#94ACF2" stroke-width="0.6"/>
<rect x="585.363" y="-26.8452" width="38.7102" height="38.7102" stroke="#94ACF2" stroke-width="0.6"/>
<rect x="585.363" y="166.705" width="38.7102" height="38.7102" stroke="#94ACF2" stroke-width="0.6"/>
<rect x="585.363" y="11.8657" width="38.7102" height="38.7102" stroke="#94ACF2" stroke-width="0.6"/>
<rect x="585.363" y="205.416" width="38.7102" height="38.7102" stroke="#94ACF2" stroke-width="0.6"/>
<rect x="585.363" y="50.5747" width="38.7102" height="38.7102" stroke="#94ACF2" stroke-width="0.6"/>
<rect x="585.363" y="89.2842" width="38.7102" height="38.7102" stroke="#94ACF2" stroke-width="0.6"/>
<rect x="624.073" y="127.995" width="38.7102" height="38.7102" stroke="#94ACF2" stroke-width="0.6"/>
<rect x="624.073" y="-26.8452" width="38.7102" height="38.7102" stroke="#94ACF2" stroke-width="0.6"/>
<rect x="624.073" y="166.705" width="38.7102" height="38.7102" stroke="#94ACF2" stroke-width="0.6"/>
<rect x="624.073" y="11.8657" width="38.7102" height="38.7102" stroke="#94ACF2" stroke-width="0.6"/>
<rect x="624.073" y="205.416" width="38.7102" height="38.7102" stroke="#94ACF2" stroke-width="0.6"/>
<rect x="624.073" y="50.5747" width="38.7102" height="38.7102" stroke="#94ACF2" stroke-width="0.6"/>
<rect x="624.073" y="89.2842" width="38.7102" height="38.7102" stroke="#94ACF2" stroke-width="0.6"/>
<rect x="662.783" y="127.995" width="38.7102" height="38.7102" stroke="#94ACF2" stroke-width="0.6"/>
<rect x="662.783" y="-26.8452" width="38.7102" height="38.7102" stroke="#94ACF2" stroke-width="0.6"/>
<rect x="662.783" y="166.705" width="38.7102" height="38.7102" stroke="#94ACF2" stroke-width="0.6"/>
<rect x="662.783" y="11.8657" width="38.7102" height="38.7102" stroke="#94ACF2" stroke-width="0.6"/>
<rect x="662.783" y="205.416" width="38.7102" height="38.7102" stroke="#94ACF2" stroke-width="0.6"/>
<rect x="662.783" y="50.5747" width="38.7102" height="38.7102" stroke="#94ACF2" stroke-width="0.6"/>
<rect x="662.783" y="89.2842" width="38.7102" height="38.7102" stroke="#94ACF2" stroke-width="0.6"/>
<rect x="701.494" y="127.995" width="38.7102" height="38.7102" stroke="#94ACF2" stroke-width="0.6"/>
<rect x="701.494" y="-26.8452" width="38.7102" height="38.7102" stroke="#94ACF2" stroke-width="0.6"/>
<rect x="701.494" y="166.705" width="38.7102" height="38.7102" stroke="#94ACF2" stroke-width="0.6"/>
<rect x="701.494" y="11.8657" width="38.7102" height="38.7102" stroke="#94ACF2" stroke-width="0.6"/>
<rect x="701.494" y="205.416" width="38.7102" height="38.7102" stroke="#94ACF2" stroke-width="0.6"/>
<rect x="701.494" y="50.5747" width="38.7102" height="38.7102" stroke="#94ACF2" stroke-width="0.6"/>
<rect x="701.494" y="89.2842" width="38.7102" height="38.7102" stroke="#94ACF2" stroke-width="0.6"/>
<rect x="740.204" y="127.995" width="38.7102" height="38.7102" stroke="#94ACF2" stroke-width="0.6"/>
<rect x="740.204" y="-26.8452" width="38.7102" height="38.7102" stroke="#94ACF2" stroke-width="0.6"/>
<rect x="740.204" y="166.705" width="38.7102" height="38.7102" stroke="#94ACF2" stroke-width="0.6"/>
<rect x="740.204" y="11.8657" width="38.7102" height="38.7102" stroke="#94ACF2" stroke-width="0.6"/>
<rect x="740.204" y="205.416" width="38.7102" height="38.7102" stroke="#94ACF2" stroke-width="0.6"/>
<rect x="740.204" y="50.5747" width="38.7102" height="38.7102" stroke="#94ACF2" stroke-width="0.6"/>
<rect x="740.204" y="89.2842" width="38.7102" height="38.7102" stroke="#94ACF2" stroke-width="0.6"/>
<rect x="778.914" y="127.995" width="38.7102" height="38.7102" stroke="#94ACF2" stroke-width="0.6"/>
<rect x="778.914" y="-26.8452" width="38.7102" height="38.7102" stroke="#94ACF2" stroke-width="0.6"/>
<rect x="778.914" y="166.705" width="38.7102" height="38.7102" stroke="#94ACF2" stroke-width="0.6"/>
<rect x="778.914" y="11.8657" width="38.7102" height="38.7102" stroke="#94ACF2" stroke-width="0.6"/>
<rect x="778.914" y="205.416" width="38.7102" height="38.7102" stroke="#94ACF2" stroke-width="0.6"/>
<rect x="778.914" y="50.5747" width="38.7102" height="38.7102" stroke="#94ACF2" stroke-width="0.6"/>
<rect x="778.914" y="89.2842" width="38.7102" height="38.7102" stroke="#94ACF2" stroke-width="0.6"/>
<rect x="817.624" y="127.995" width="38.7102" height="38.7102" stroke="#94ACF2" stroke-width="0.6"/>
<rect x="817.624" y="-26.8452" width="38.7102" height="38.7102" stroke="#94ACF2" stroke-width="0.6"/>
<rect x="817.624" y="166.705" width="38.7102" height="38.7102" stroke="#94ACF2" stroke-width="0.6"/>
<rect x="817.624" y="11.8657" width="38.7102" height="38.7102" stroke="#94ACF2" stroke-width="0.6"/>
<rect x="817.624" y="205.416" width="38.7102" height="38.7102" stroke="#94ACF2" stroke-width="0.6"/>
<rect x="817.624" y="50.5747" width="38.7102" height="38.7102" stroke="#94ACF2" stroke-width="0.6"/>
<rect x="817.624" y="89.2842" width="38.7102" height="38.7102" stroke="#94ACF2" stroke-width="0.6"/>
<rect x="856.335" y="127.995" width="38.7102" height="38.7102" stroke="#94ACF2" stroke-width="0.6"/>
<rect x="856.335" y="-26.8452" width="38.7102" height="38.7102" stroke="#94ACF2" stroke-width="0.6"/>
<rect x="856.335" y="166.705" width="38.7102" height="38.7102" stroke="#94ACF2" stroke-width="0.6"/>
<rect x="856.335" y="11.8657" width="38.7102" height="38.7102" stroke="#94ACF2" stroke-width="0.6"/>
<rect x="856.335" y="205.416" width="38.7102" height="38.7102" stroke="#94ACF2" stroke-width="0.6"/>
<rect x="856.335" y="50.5747" width="38.7102" height="38.7102" stroke="#94ACF2" stroke-width="0.6"/>
<rect x="856.335" y="89.2842" width="38.7102" height="38.7102" stroke="#94ACF2" stroke-width="0.6"/>
<rect x="895.045" y="127.995" width="38.7102" height="38.7102" stroke="#94ACF2" stroke-width="0.6"/>
<rect x="895.045" y="-26.8452" width="38.7102" height="38.7102" stroke="#94ACF2" stroke-width="0.6"/>
<rect x="895.045" y="166.705" width="38.7102" height="38.7102" stroke="#94ACF2" stroke-width="0.6"/>
<rect x="895.045" y="11.8657" width="38.7102" height="38.7102" stroke="#94ACF2" stroke-width="0.6"/>
<rect x="895.045" y="205.416" width="38.7102" height="38.7102" stroke="#94ACF2" stroke-width="0.6"/>
<rect x="895.045" y="50.5747" width="38.7102" height="38.7102" stroke="#94ACF2" stroke-width="0.6"/>
<rect x="895.045" y="89.2842" width="38.7102" height="38.7102" stroke="#94ACF2" stroke-width="0.6"/>
<rect x="933.755" y="127.995" width="38.7102" height="38.7102" stroke="#94ACF2" stroke-width="0.6"/>
<rect x="933.755" y="-26.8452" width="38.7102" height="38.7102" stroke="#94ACF2" stroke-width="0.6"/>
<rect x="933.755" y="166.705" width="38.7102" height="38.7102" stroke="#94ACF2" stroke-width="0.6"/>
<rect x="933.755" y="11.8657" width="38.7102" height="38.7102" stroke="#94ACF2" stroke-width="0.6"/>
<rect x="933.755" y="205.416" width="38.7102" height="38.7102" stroke="#94ACF2" stroke-width="0.6"/>
<rect x="933.755" y="50.5747" width="38.7102" height="38.7102" stroke="#94ACF2" stroke-width="0.6"/>
<rect x="933.755" y="89.2842" width="38.7102" height="38.7102" stroke="#94ACF2" stroke-width="0.6"/>
</g>
<path d="M472.903 89.4097L417.153 89.4097" stroke="url(#paint1_linear_5026_4252)" stroke-width="0.6"/>
<path d="M573.403 50.4097L517.653 50.4097" stroke="url(#paint2_linear_5026_4252)" stroke-width="0.6"/>
<path d="M611.903 166.91L556.153 166.91" stroke="url(#paint3_linear_5026_4252)" stroke-width="0.6"/>
<path d="M662.903 89.4097L607.153 89.4097" stroke="url(#paint4_linear_5026_4252)" stroke-width="0.6"/>
<path d="M733.903 205.41L678.153 205.41" stroke="url(#paint5_linear_5026_4252)" stroke-width="0.6"/>
<path d="M431.232 -9.21533L431.232 20.9722L431.232 51.1597" stroke="url(#paint6_linear_5026_4252)" stroke-width="0.6"/>
<path d="M469.545 110.785L469.545 140.972L469.545 171.16" stroke="url(#paint7_linear_5026_4252)" stroke-width="0.6"/>
<path d="M585.045 83.7222L585.045 113.91L585.045 144.097" stroke="url(#paint8_linear_5026_4252)" stroke-width="0.6"/>
<path d="M546.545 167.785L546.545 197.972L546.545 228.16" stroke="url(#paint9_linear_5026_4252)" stroke-width="0.6"/>
<path d="M392.232 50.2847L392.232 142.16" stroke="url(#paint10_linear_5026_4252)" stroke-width="0.6"/>
<path d="M779.232 29.2847L779.232 121.16" stroke="url(#paint11_linear_5026_4252)" stroke-width="0.6"/>
</g>
</g>
<defs>
<radialGradient id="paint0_radial_5026_4252" cx="0" cy="0" r="1" gradientUnits="userSpaceOnUse" gradientTransform="translate(469.232 108.91) rotate(90) scale(108.91 469.232)">
<stop stop-color="#3D7FFF"/>
<stop offset="1" stop-color="white" stop-opacity="0"/>
</radialGradient>
<linearGradient id="paint1_linear_5026_4252" x1="472.903" y1="89.9097" x2="417.153" y2="89.9097" gradientUnits="userSpaceOnUse">
<stop stop-color="white" stop-opacity="0"/>
<stop offset="0.510417" stop-color="white"/>
<stop offset="1" stop-color="white" stop-opacity="0"/>
</linearGradient>
<linearGradient id="paint2_linear_5026_4252" x1="573.403" y1="50.9097" x2="517.653" y2="50.9097" gradientUnits="userSpaceOnUse">
<stop stop-color="white" stop-opacity="0"/>
<stop offset="0.510417" stop-color="white"/>
<stop offset="1" stop-color="white" stop-opacity="0"/>
</linearGradient>
<linearGradient id="paint3_linear_5026_4252" x1="611.903" y1="167.41" x2="556.153" y2="167.41" gradientUnits="userSpaceOnUse">
<stop stop-color="white" stop-opacity="0"/>
<stop offset="0.510417" stop-color="white"/>
<stop offset="1" stop-color="white" stop-opacity="0"/>
</linearGradient>
<linearGradient id="paint4_linear_5026_4252" x1="662.903" y1="89.9097" x2="607.153" y2="89.9097" gradientUnits="userSpaceOnUse">
<stop stop-color="white" stop-opacity="0"/>
<stop offset="0.510417" stop-color="white"/>
<stop offset="1" stop-color="white" stop-opacity="0"/>
</linearGradient>
<linearGradient id="paint5_linear_5026_4252" x1="733.903" y1="205.91" x2="678.153" y2="205.91" gradientUnits="userSpaceOnUse">
<stop stop-color="white" stop-opacity="0"/>
<stop offset="0.510417" stop-color="white"/>
<stop offset="1" stop-color="white" stop-opacity="0"/>
</linearGradient>
<linearGradient id="paint6_linear_5026_4252" x1="431.732" y1="-9.21533" x2="431.732" y2="51.1597" gradientUnits="userSpaceOnUse">
<stop stop-color="white" stop-opacity="0"/>
<stop offset="0.510417" stop-color="white"/>
<stop offset="1" stop-color="white" stop-opacity="0"/>
</linearGradient>
<linearGradient id="paint7_linear_5026_4252" x1="470.045" y1="110.785" x2="470.045" y2="171.16" gradientUnits="userSpaceOnUse">
<stop stop-color="white" stop-opacity="0"/>
<stop offset="0.510417" stop-color="white"/>
<stop offset="1" stop-color="white" stop-opacity="0"/>
</linearGradient>
<linearGradient id="paint8_linear_5026_4252" x1="585.545" y1="83.7222" x2="585.545" y2="144.097" gradientUnits="userSpaceOnUse">
<stop stop-color="white" stop-opacity="0"/>
<stop offset="0.510417" stop-color="white"/>
<stop offset="1" stop-color="white" stop-opacity="0"/>
</linearGradient>
<linearGradient id="paint9_linear_5026_4252" x1="547.045" y1="167.785" x2="547.045" y2="228.16" gradientUnits="userSpaceOnUse">
<stop stop-color="white" stop-opacity="0"/>
<stop offset="0.510417" stop-color="white"/>
<stop offset="1" stop-color="white" stop-opacity="0"/>
</linearGradient>
<linearGradient id="paint10_linear_5026_4252" x1="392.732" y1="50.2847" x2="392.732" y2="142.16" gradientUnits="userSpaceOnUse">
<stop stop-color="white" stop-opacity="0"/>
<stop offset="0.510417" stop-color="white"/>
<stop offset="1" stop-color="white" stop-opacity="0"/>
</linearGradient>
<linearGradient id="paint11_linear_5026_4252" x1="779.732" y1="29.2847" x2="779.732" y2="121.16" gradientUnits="userSpaceOnUse">
<stop stop-color="white" stop-opacity="0"/>
<stop offset="0.510417" stop-color="white"/>
<stop offset="1" stop-color="white" stop-opacity="0"/>
</linearGradient>
<clipPath id="clip0_5026_4252">
<rect width="938" height="218" fill="white"/>
</clipPath>
</defs>
</svg>
