<svg width="948" height="948" viewBox="0 0 948 948" fill="none" xmlns="http://www.w3.org/2000/svg">
<path d="M731.5 580.6C813.7 669.6 848.4 769.3 808.8 808.9C769.2 848.5 669.5 813.8 580.5 731.6C575.7 852.7 529.8 947.7 473.7 947.7C417.6 947.7 371.7 852.7 366.9 731.6C277.9 813.8 178.2 848.5 138.6 808.9C99 769.3 133.7 669.6 215.9 580.6C95 575.8 0 529.8 0 473.8C0 417.8 95 371.8 216.1 367C133.9 278 99.2 178.3 138.8 138.7C178.4 99.1 278.1 133.8 367.1 216C371.8 95 417.8 0 473.8 0C529.8 0 575.8 95 580.6 216.1C669.6 133.9 769.3 99.2 808.9 138.8C848.5 178.4 813.8 278.1 731.6 367.1C852.7 371.9 947.7 417.8 947.7 473.9C947.6 529.8 852.6 575.8 731.5 580.6Z" fill="black"/>
</svg>
